<?xml version="1.0" encoding="iso-8859-1"?>
<!-- Uploaded to: SVG Repo, www.svgrepo.com, Generator: SVG Repo Mixer Tools -->
<svg fill="#000000" height="800px" width="800px" version="1.1" id="Layer_1" xmlns="http://www.w3.org/2000/svg" xmlns:xlink="http://www.w3.org/1999/xlink" 
	 viewBox="0 0 511.997 511.997" xml:space="preserve">
<g>
	<g>
		<path d="M451.637,58.907c0-2.293-0.911-4.492-2.532-6.113l-18.577-18.577l-0.001,0.001c-0.007-0.007-0.013-0.015-0.021-0.022
			l-30.36-30.149c-3.381-3.357-8.837-3.347-12.207,0.022l-3.855,3.855l-5.392-5.392c-3.375-3.377-8.85-3.375-12.227,0
			c-3.377,3.377-3.377,8.851,0.001,12.228l5.39,5.39L111.819,280.189l-5.354-5.354c-3.378-3.377-8.851-3.377-12.228,0
			s-3.377,8.85,0,12.227l5.613,5.613c-3.41,4.185-6.291,8.731-8.606,13.545c-7.694,1.038-14.931,4.574-20.465,10.109
			c-13.892,13.892-13.892,36.497,0,50.39c6.753,6.754,15.815,10.441,25.158,10.441c0.77,0,1.544-0.035,2.317-0.085
			c0.688,0.914,1.397,1.816,2.135,2.699l13.256,15.877c2.947,3.532,8.144,4.135,11.824,1.375c9.321-6.993,20.795-9.821,32.298-7.961
			c11.504,1.858,21.501,8.154,28.148,17.726l62.555,90.091c5.961,8.585,15.349,14.042,25.759,14.974
			c1.057,0.095,2.111,0.142,3.161,0.142c9.291,0,18.207-3.665,24.848-10.305l38.225-38.227c8.365-8.366,9.626-21.549,2.997-31.347
			l-43.774-64.707c-10.449-15.449-8.463-36.233,4.726-49.421l27.595-27.595c16.502-16.502,20.484-41.567,9.906-62.371l-7.167-14.094
			c-4.14-8.143-2.633-17.932,3.725-24.46l40.044-40.061c1.621-1.622,2.532-3.82,2.532-6.113s-0.911-4.492-2.533-6.113l-0.786-0.786
			l71.38-71.38C450.726,63.399,451.637,61.2,451.637,58.907z M83.006,354.494c-7.151-7.151-7.151-18.786,0-25.937
			c0.654-0.654,1.358-1.231,2.084-1.771c-0.266,1.994-0.453,4.006-0.544,6.035c-0.39,8.684,0.873,17.25,3.637,25.304
			C86.289,357.234,84.532,356.019,83.006,354.494z M295.811,301.885c-4.31,3.936-9.644,6.241-15.146,6.525
			c-5.528,0.284-10.61-1.556-14.242-5.188c-9.787-9.785-10.245-25.768-2.018-38.367c5.952,15.382,18.792,28.643,33.814,34.875
			C298.218,299.73,296.114,301.609,295.811,301.885z M319.779,278.171l-7.704,7.704c-16.307-2.641-31.937-19.327-33.741-36.119
			l25.218-25.28l0.055,0.055c4.075-4.023,7.868-6.076,10.649-5.788c3.085,0.32,5.306,3.556,5.327,3.589l-0.072-0.112
			c0,0,0.012-0.016,0.027-0.038l6.957,13.682C333.672,249.976,330.972,266.977,319.779,278.171z M360.216,143.255L257.114,246.542
			c-19.803,19.804-21.111,50.716-2.92,68.908c6.632,6.632,15.49,10.236,25.138,10.278c-6.256,16.669-4.451,35.881,6.03,51.375
			l43.774,64.707c1.993,2.948,1.614,6.913-0.903,9.43l-38.224,38.225c-3.758,3.757-8.954,5.637-14.242,5.167
			c-5.292-0.474-10.065-3.249-13.097-7.613l-62.555-90.091c-9.348-13.465-23.41-22.32-39.593-24.935
			c-3.053-0.493-6.101-0.742-9.129-0.772l45.85-45.85c3.377-3.377,3.377-8.851,0-12.227c-3.378-3.376-8.851-3.376-12.228,0
			l-64.161,64.161l-7.193-8.616c-12.836-15.375-15.279-35.929-7.714-53.199l19.338,19.338c1.689,1.689,3.902,2.533,6.114,2.533
			c2.212,0,4.426-0.844,6.114-2.533c3.377-3.376,3.377-8.851,0-12.226l-21.802-21.802c0.347-0.368,0.688-0.739,1.048-1.099
			l7.399-7.399l21.827,21.827c1.689,1.689,3.902,2.533,6.114,2.533c2.212,0,4.426-0.844,6.114-2.533
			c3.377-3.377,3.377-8.851,0-12.226l-21.827-21.827l8.472-8.472l21.826,21.827c1.689,1.689,3.901,2.533,6.114,2.533
			c2.212,0,4.426-0.844,6.113-2.533c3.378-3.376,3.378-8.851,0.001-12.228l-21.827-21.827l8.472-8.472l21.827,21.826
			c1.689,1.689,3.902,2.533,6.114,2.533c2.212,0,4.426-0.844,6.114-2.533c3.377-3.377,3.377-8.851,0-12.227l-21.827-21.827
			L394.076,22.388l18.09,17.964l-50.402,50.402c-7.229,7.23-11.213,16.845-11.213,27.07
			C350.55,127.295,353.967,136.242,360.216,143.255z M368.178,121.493c-0.211-1.201-0.335-2.425-0.335-3.669
			c0-5.607,2.185-10.878,6.149-14.843l50.422-50.423l6.351,6.35L368.178,121.493z"/>
	</g>
</g>
<g>
	<g>
		<path d="M263.438,355.289c-3.378-3.377-8.851-3.377-12.228,0l-34.671,34.671c-3.378,3.375-3.378,8.85-0.001,12.226
			c1.689,1.689,3.902,2.533,6.114,2.533c2.212,0,4.426-0.844,6.114-2.533l34.671-34.671
			C266.815,364.139,266.815,358.666,263.438,355.289z"/>
	</g>
</g>
<g>
	<g>
		<path d="M279.365,382.701c-3.378-3.377-8.851-3.377-12.228,0l-32.071,32.071c-3.377,3.376-3.377,8.85-0.001,12.226
			c1.689,1.689,3.902,2.533,6.114,2.533c2.212,0,4.426-0.844,6.114-2.533l32.071-32.071
			C282.742,391.551,282.742,386.078,279.365,382.701z"/>
	</g>
</g>
<g>
	<g>
		<path d="M294.861,410.546c-3.378-3.377-8.851-3.377-12.228,0l-28.604,28.604c-3.378,3.377-3.378,8.851-0.001,12.227
			c1.689,1.689,3.902,2.533,6.114,2.533c2.212,0,4.426-0.844,6.114-2.533l28.604-28.604
			C298.237,419.396,298.237,413.921,294.861,410.546z"/>
	</g>
</g>
<g>
	<g>
		<path d="M312.087,436.656c-3.377-3.375-8.85-3.376-12.228,0l-28.604,28.604c-3.378,3.378-3.378,8.852-0.001,12.228
			c1.689,1.689,3.901,2.533,6.114,2.533c2.212,0,4.426-0.844,6.114-2.533l28.604-28.604
			C315.464,445.508,315.464,440.033,312.087,436.656z"/>
	</g>
</g>
<g>
	<g>
		<path d="M227.58,282.81c-3.375-3.377-8.85-3.375-12.227,0l-9.535,9.535c-3.377,3.377-3.377,8.851,0.001,12.228
			c1.688,1.688,3.901,2.533,6.113,2.533c2.212,0,4.426-0.844,6.114-2.533l9.534-9.535
			C230.957,291.661,230.957,286.186,227.58,282.81z"/>
	</g>
</g>
</svg>